<svg width="36" height="36" viewBox="0 0 36 36" fill="none" xmlns="http://www.w3.org/2000/svg">
<g id="Icon / Multi Select / Book">
<g id="Object">
<mask id="mask0" mask-type="alpha" maskUnits="userSpaceOnUse" x="4" y="4" width="5" height="23">
<path id="Fill 1" fill-rule="evenodd" clip-rule="evenodd" d="M5.25235 5.25198L4.76978 7.66827V26.9968L5.73492 26.5134L7.66863 25.064L8.63463 24.5806V4.76855L5.25235 5.25198Z" fill="white"/>
</mask>
<g mask="url(#mask0)">
<g id="color secondary" opacity="0.2">
<rect id="Rectangle" width="36" height="36" fill="#32C850"/>
</g>
</g>
</g>
<path id="Stroke 11" fill-rule="evenodd" clip-rule="evenodd" d="M4.25488 29.4132H4.28158C4.52211 31.6045 6.37945 33.3101 8.63437 33.3101H31.3461V32.2815H8.63437C6.78432 32.2815 5.2838 30.7806 5.2838 28.9301C5.2838 27.0791 6.784 25.5787 8.63437 25.5787H30.3801V25.5475H31.3774V5.58211C31.3774 4.84893 30.7829 4.25439 30.0497 4.25439H6.44745C5.23625 4.25439 4.25488 5.23611 4.25488 6.44697V29.4132ZM8.12042 24.5799C6.98536 24.7127 5.98289 25.2796 5.28345 26.1102V6.44697C5.28345 5.80409 5.80439 5.28297 6.44745 5.28297H8.12042V24.5799ZM26.6069 24.5501H30.3489V21.7435L26.6069 24.5501ZM24.8927 24.5501H14.1492L9.149 20.0046V9.36133L14.134 5.28297H24.8782L30.3489 9.84224V20.4578L24.8927 24.5501ZM12.5096 5.28297H9.149V8.03239L12.5096 5.28297ZM9.149 21.3946L12.6201 24.5501H9.149V21.3946ZM30.3489 5.58211V8.50329L26.4848 5.28297H30.0497C30.2148 5.28297 30.3489 5.417 30.3489 5.58211ZM30.3797 27.5114V26.4828H8.15137V27.5114H30.3797ZM30.3797 28.4155V29.4441H8.15137V28.4155H30.3797ZM25.5473 9.63196V8.60339H16.3665V9.63196H25.5473ZM25.5473 10.5365V11.5651H16.3665V10.5365H25.5473ZM30.3797 31.3769V30.3483H8.15137V31.3769H30.3797Z" fill="#32C850"/>
<mask id="mask1" mask-type="alpha" maskUnits="userSpaceOnUse" x="4" y="4" width="28" height="30">
<path id="Stroke 11_2" fill-rule="evenodd" clip-rule="evenodd" d="M4.25488 29.4132H4.28158C4.52211 31.6045 6.37945 33.3101 8.63437 33.3101H31.3461V32.2815H8.63437C6.78432 32.2815 5.2838 30.7806 5.2838 28.9301C5.2838 27.0791 6.784 25.5787 8.63437 25.5787H30.3801V25.5475H31.3774V5.58211C31.3774 4.84893 30.7829 4.25439 30.0497 4.25439H6.44745C5.23625 4.25439 4.25488 5.23611 4.25488 6.44697V29.4132ZM8.12042 24.5799C6.98536 24.7127 5.98289 25.2796 5.28345 26.1102V6.44697C5.28345 5.80409 5.80439 5.28297 6.44745 5.28297H8.12042V24.5799ZM26.6069 24.5501H30.3489V21.7435L26.6069 24.5501ZM24.8927 24.5501H14.1492L9.149 20.0046V9.36133L14.134 5.28297H24.8782L30.3489 9.84224V20.4578L24.8927 24.5501ZM12.5096 5.28297H9.149V8.03239L12.5096 5.28297ZM9.149 21.3946L12.6201 24.5501H9.149V21.3946ZM30.3489 5.58211V8.50329L26.4848 5.28297H30.0497C30.2148 5.28297 30.3489 5.417 30.3489 5.58211ZM30.3797 27.5114V26.4828H8.15137V27.5114H30.3797ZM30.3797 28.4155V29.4441H8.15137V28.4155H30.3797ZM25.5473 9.63196V8.60339H16.3665V9.63196H25.5473ZM25.5473 10.5365V11.5651H16.3665V10.5365H25.5473ZM30.3797 31.3769V30.3483H8.15137V31.3769H30.3797Z" fill="white"/>
</mask>
<g mask="url(#mask1)">
<g id="color primary">
<rect id="Rectangle_2" width="36" height="36" fill="#32C850"/>
</g>
</g>
</g>
</svg>
