<svg width="37" height="37" viewBox="0 0 37 37" fill="none" xmlns="http://www.w3.org/2000/svg">
<g id="Icon / Multi Select / Bottle + Wine Glass">
<g id="secondary">
<mask id="mask0" mask-type="alpha" maskUnits="userSpaceOnUse" x="7" y="15" width="24" height="14">
<path id="Fill 15" fill-rule="evenodd" clip-rule="evenodd" d="M21.0698 16.9126C21.0848 19.4506 23.1533 21.5103 25.6948 21.5103C28.2452 21.5103 30.3198 19.4356 30.3198 16.8853L30.2141 15.9383C29.4168 15.8942 27.78 15.9497 25.9248 16.8774C25.3504 17.1646 24.7954 17.2826 24.2703 17.2826C22.9921 17.2826 21.9076 16.5866 21.1764 15.9497L21.0698 16.9126ZM16.4448 28.1905H7.19482V21.5102H16.4448V28.1905Z" fill="white"/>
</mask>
<g mask="url(#mask0)">
<g id="@color-secondary" opacity="0.2">
<rect id="Rectangle" width="37" height="37" fill="#32C850"/>
</g>
</g>
</g>
<g id="primary">
<path id="Stroke 13" fill-rule="evenodd" clip-rule="evenodd" d="M9.74942 5.65731V6.62207H13.8899V5.65757C14.194 5.8064 14.4035 6.11905 14.4035 6.48112V13.2515L15.0045 13.708C16.5686 14.8979 17.4868 16.7486 17.4868 18.7123V32.8269C17.4868 33.6804 16.7952 34.3721 15.9425 34.3721H7.6968C6.84348 34.3721 6.15161 33.6806 6.15161 32.8269V18.7123C6.15161 16.7483 7.07005 14.8976 8.63488 13.7079L9.23494 13.2517V6.48112C9.23494 6.11866 9.44474 5.80598 9.74942 5.65731ZM9.74942 5.65731V3.50879H13.8899V5.65757C13.7686 5.59823 13.6323 5.56493 13.4882 5.56493H12.8328V4.56594H10.8066V5.56493H10.1511C10.007 5.56493 9.87071 5.59813 9.74942 5.65731ZM20.0266 16.8852L20.0298 16.8268L20.5966 11.7317H30.7928L30.845 12.2019L31.3618 16.8852C31.3618 19.8374 29.1057 22.2616 26.2232 22.5281V22.0239H25.1661V22.5281C22.2834 22.2616 20.0266 19.8372 20.0266 16.8852ZM25.1661 30.006V22.5281C25.3401 22.5442 25.5164 22.5524 25.6947 22.5524C25.8729 22.5524 26.0492 22.5442 26.2232 22.5281V30.006L26.0428 29.8481C25.8435 29.6736 25.5459 29.6736 25.3466 29.848L25.1661 30.006ZM25.1661 30.006V30.2458H26.2232V30.006L30.1533 33.4459C30.5205 33.7673 30.2932 34.3722 29.8052 34.3722H21.5833C21.0952 34.3722 20.8679 33.7672 21.2352 33.4458L25.1661 30.006ZM16.9583 29.2327V28.1755H16.4297V21.5243H7.20875V28.1755H6.68018V29.2327H7.20875V32.8269C7.20875 33.0966 7.42718 33.3149 7.6968 33.3149H15.9425C16.2113 33.3149 16.4297 33.0966 16.4297 32.8269V29.2327H16.9583ZM16.4297 29.2327H7.20875V28.1755H16.4297V29.2327ZM7.20875 20.4672V18.7123C7.20875 17.0787 7.97271 15.5393 9.27471 14.5494L10.0834 13.9345L10.2921 13.7759V6.62208H13.3463V13.7761L14.3648 14.5496C15.6659 15.5394 16.4297 17.0789 16.4297 18.7123V20.4672H7.20875ZM25.6946 30.9482L28.3987 33.315H22.9899L25.6946 30.9482ZM30.3079 16.9436C30.3047 19.4318 28.2412 21.4953 25.6947 21.4953C23.1575 21.4953 21.0992 19.447 21.0838 16.9138L21.1847 16.0069C22.5487 17.2271 24.1771 17.7673 25.9308 16.8914C27.49 16.1113 28.9723 15.8699 30.197 15.9446L30.3079 16.9436ZM21.5427 12.7888L21.3343 14.6619C22.5316 15.9903 23.9836 16.6823 25.4582 15.9458C27.1232 15.1128 28.7191 14.8284 30.0788 14.8803L29.8465 12.7888H21.5427Z" fill="#32C850"/>
<mask id="mask1" mask-type="alpha" maskUnits="userSpaceOnUse" x="6" y="3" width="26" height="32">
<path id="Stroke 13_2" fill-rule="evenodd" clip-rule="evenodd" d="M9.74942 5.65731V6.62207H13.8899V5.65757C14.194 5.8064 14.4035 6.11905 14.4035 6.48112V13.2515L15.0045 13.708C16.5686 14.8979 17.4868 16.7486 17.4868 18.7123V32.8269C17.4868 33.6804 16.7952 34.3721 15.9425 34.3721H7.6968C6.84348 34.3721 6.15161 33.6806 6.15161 32.8269V18.7123C6.15161 16.7483 7.07005 14.8976 8.63488 13.7079L9.23494 13.2517V6.48112C9.23494 6.11866 9.44474 5.80598 9.74942 5.65731ZM9.74942 5.65731V3.50879H13.8899V5.65757C13.7686 5.59823 13.6323 5.56493 13.4882 5.56493H12.8328V4.56594H10.8066V5.56493H10.1511C10.007 5.56493 9.87071 5.59813 9.74942 5.65731ZM20.0266 16.8852L20.0298 16.8268L20.5966 11.7317H30.7928L30.845 12.2019L31.3618 16.8852C31.3618 19.8374 29.1057 22.2616 26.2232 22.5281V22.0239H25.1661V22.5281C22.2834 22.2616 20.0266 19.8372 20.0266 16.8852ZM25.1661 30.006V22.5281C25.3401 22.5442 25.5164 22.5524 25.6947 22.5524C25.8729 22.5524 26.0492 22.5442 26.2232 22.5281V30.006L26.0428 29.8481C25.8435 29.6736 25.5459 29.6736 25.3466 29.848L25.1661 30.006ZM25.1661 30.006V30.2458H26.2232V30.006L30.1533 33.4459C30.5205 33.7673 30.2932 34.3722 29.8052 34.3722H21.5833C21.0952 34.3722 20.8679 33.7672 21.2352 33.4458L25.1661 30.006ZM16.9583 29.2327V28.1755H16.4297V21.5243H7.20875V28.1755H6.68018V29.2327H7.20875V32.8269C7.20875 33.0966 7.42718 33.3149 7.6968 33.3149H15.9425C16.2113 33.3149 16.4297 33.0966 16.4297 32.8269V29.2327H16.9583ZM16.4297 29.2327H7.20875V28.1755H16.4297V29.2327ZM7.20875 20.4672V18.7123C7.20875 17.0787 7.97271 15.5393 9.27471 14.5494L10.0834 13.9345L10.2921 13.7759V6.62208H13.3463V13.7761L14.3648 14.5496C15.6659 15.5394 16.4297 17.0789 16.4297 18.7123V20.4672H7.20875ZM25.6946 30.9482L28.3987 33.315H22.9899L25.6946 30.9482ZM30.3079 16.9436C30.3047 19.4318 28.2412 21.4953 25.6947 21.4953C23.1575 21.4953 21.0992 19.447 21.0838 16.9138L21.1847 16.0069C22.5487 17.2271 24.1771 17.7673 25.9308 16.8914C27.49 16.1113 28.9723 15.8699 30.197 15.9446L30.3079 16.9436ZM21.5427 12.7888L21.3343 14.6619C22.5316 15.9903 23.9836 16.6823 25.4582 15.9458C27.1232 15.1128 28.7191 14.8284 30.0788 14.8803L29.8465 12.7888H21.5427Z" fill="white"/>
</mask>
<g mask="url(#mask1)">
<g id="@color-primary">
<rect id="Rectangle_2" width="37" height="37" fill="#32C850"/>
</g>
</g>
</g>
</g>
</svg>
