<svg width="36" height="36" viewBox="0 0 36 36" fill="none" xmlns="http://www.w3.org/2000/svg">
<g id="Icon / Multi Select / Cat">
<g id="Object">
<mask id="mask0" mask-type="alpha" maskUnits="userSpaceOnUse" x="3" y="6" width="30" height="24">
<path id="Fill 5" fill-rule="evenodd" clip-rule="evenodd" d="M4.42916 6.57149L3.92944 7.57092L5.93001 12.5715L8.42944 11.5721V10.5709L5.93001 6.07178L4.42916 6.57149ZM11.4233 23.5717L15.4236 24.572L11.923 29.072L10.9236 26.072L11.4233 23.5717ZM27.9295 21.0714L30.9295 16.5714L32.4295 21.0714H27.9295ZM32.4295 23.5717L28.4292 24.572L31.929 29.072L32.9292 26.072L32.4295 23.5717ZM15.9233 21.0714L12.9233 16.5714L11.4233 21.0714H15.9233Z" fill="white"/>
</mask>
<g mask="url(#mask0)">
<g id="@color-secondary" opacity="0.2">
<rect id="Rectangle" width="36" height="36" fill="#32C850"/>
</g>
</g>
</g>
<path id="Stroke 21" fill-rule="evenodd" clip-rule="evenodd" d="M33.443 25.072C33.443 28.0227 32.3193 30.7993 30.3364 32.923C30.2391 33.0272 30.103 33.0863 29.9605 33.0863H13.8976L13.8867 33.0862L13.8763 33.0858H13.9292V32.0573H12.7883C12.3148 31.44 11.9064 30.7797 11.5683 30.0858H11.9287V29.0573H11.128C10.6612 27.7999 10.4142 26.455 10.4142 25.072C10.4142 23.267 11.308 19.5209 12.9152 14.2317L11.8589 14.0808C11.5777 14.0407 11.3823 13.7802 11.4225 13.499C11.4626 13.2178 11.7231 13.0224 12.0043 13.0626L13.2204 13.2362C13.2757 13.0576 13.3317 12.8773 13.3884 12.6955L11.2841 12.0642C11.012 11.9825 10.8577 11.6958 10.9393 11.4238C11.0209 11.1517 11.3076 10.9974 11.5797 11.079L13.6968 11.7142C14.1988 10.1285 14.7529 8.43012 15.3554 6.62727L14.9182 3.13561C14.8635 2.69868 15.3474 2.39955 15.7137 2.6438L20.0842 5.55743H23.773L28.1435 2.6438C28.5098 2.39958 28.9937 2.69861 28.9391 3.13549L28.5027 6.62724C29.1052 8.43067 29.6592 10.1294 30.1611 11.7151L32.2816 11.079C32.5537 10.9974 32.8404 11.1518 32.922 11.4238C33.0036 11.6959 32.8492 11.9826 32.5772 12.0642L30.4694 12.6964C30.5261 12.8781 30.5821 13.0582 30.6372 13.2366L31.8561 13.0626C32.1373 13.0224 32.3978 13.2178 32.4379 13.499C32.4781 13.7802 32.2827 14.0407 32.0015 14.0808L30.9424 14.2321C32.5497 19.5226 33.443 23.2671 33.443 25.072ZM14.2525 13.3836C14.2927 13.2537 14.3334 13.1229 14.3744 12.9913L16.2838 13.5642C16.5559 13.6458 16.8426 13.4914 16.9242 13.2194C17.0058 12.9473 16.8514 12.6606 16.5794 12.579L14.6828 12.01C15.1921 10.4003 15.7553 8.67409 16.3679 6.84257C16.3923 6.76954 16.4001 6.69195 16.3905 6.61553L16.0784 4.12311L19.6432 6.49963C19.7277 6.55595 19.8269 6.586 19.9285 6.586H23.9288C24.0303 6.586 24.1296 6.55595 24.214 6.49963L27.7791 4.12291L27.4676 6.61565C27.458 6.69201 27.4658 6.76954 27.4902 6.84252C28.1028 8.67462 28.6659 10.4011 29.1751 12.0108L27.2811 12.579C27.009 12.6606 26.8546 12.9473 26.9362 13.2193C27.0178 13.4914 27.3045 13.6458 27.5766 13.5642L29.4834 12.9922C29.5244 13.1236 29.565 13.2542 29.6052 13.384L28.3564 13.5623C28.0752 13.6025 27.8798 13.8629 27.92 14.1441C27.9601 14.4253 28.2206 14.6207 28.5018 14.5806L29.911 14.3793C31.5145 19.6443 32.4145 23.3744 32.4145 25.072C32.4145 27.6837 31.4481 30.1444 29.7339 32.0577H14.1241C12.4096 30.144 11.4428 27.6833 11.4428 25.072C11.4428 23.3743 12.3432 19.6426 13.9466 14.3789L15.3586 14.5806C15.6398 14.6207 15.9003 14.4253 15.9404 14.1441C15.9806 13.8629 15.7852 13.6025 15.504 13.5623L14.2525 13.3836ZM11.5683 30.0858H8.60982C8.07842 30.0858 7.67457 29.8454 7.40431 29.5025C7.13326 29.1601 6.99168 28.7139 7.11212 28.1973L8.89844 20.5403C9.59371 17.563 9.34551 14.4948 8.18141 11.6654L6.34129 7.19664C6.13357 6.69337 5.5585 6.45419 5.05386 6.65999C4.55035 6.86726 4.31031 7.44348 4.51765 7.94717L6.35794 12.4163C7.36457 14.861 7.57936 17.5168 6.97893 20.0919L5.19184 27.7494C4.94712 28.8001 5.19053 29.884 5.86094 30.7287C6.53158 31.5738 7.53193 32.0573 8.60982 32.0573H12.7883C13.0177 32.3563 13.2624 32.6452 13.5217 32.923C13.6141 33.022 13.7416 33.0803 13.8763 33.0858H8.60982C7.21796 33.0858 5.92096 32.4589 5.05526 31.3681C4.18977 30.2776 3.8742 28.8723 4.19013 27.5158L5.97725 19.8582C6.52903 17.4918 6.33191 15.0546 5.40684 12.808L3.56653 8.33875C3.14297 7.30978 3.63344 6.13238 4.6639 5.70821C5.69371 5.28824 6.86791 5.7766 7.29222 6.8046L9.13257 11.2739C10.3782 14.3015 10.6441 17.5883 9.90008 20.7741L8.11382 28.4309C8.0732 28.6051 8.1183 28.7473 8.21143 28.8649C8.30308 28.9812 8.43086 29.0573 8.60982 29.0573H11.128C11.258 29.4073 11.4049 29.7505 11.5683 30.0858ZM24.4434 11.0714C24.4434 11.3554 24.2131 11.5857 23.9291 11.5857C23.6451 11.5857 23.4148 11.3554 23.4148 11.0714C23.4148 9.97113 24.4325 9.1197 25.6477 9.1197C26.8624 9.1197 27.8814 9.97138 27.8814 11.0714C27.8814 11.3554 27.6511 11.5857 27.3671 11.5857C27.0831 11.5857 26.8528 11.3554 26.8528 11.0714C26.8528 10.5844 26.3311 10.1483 25.6477 10.1483C24.964 10.1483 24.4434 10.5838 24.4434 11.0714ZM19.9288 11.5857C20.2129 11.5857 20.4431 11.3554 20.4431 11.0714C20.4431 9.97113 19.4255 9.1197 18.2102 9.1197C16.9956 9.1197 15.9774 9.97133 15.9774 11.0714C15.9774 11.3554 16.2076 11.5857 16.4917 11.5857C16.7757 11.5857 17.006 11.3554 17.006 11.0714C17.006 10.5841 17.5271 10.1483 18.2102 10.1483C18.8939 10.1483 19.4145 10.5838 19.4145 11.0714C19.4145 11.3554 19.6448 11.5857 19.9288 11.5857Z" fill="#32C850"/>
<mask id="mask1" mask-type="alpha" maskUnits="userSpaceOnUse" x="3" y="2" width="31" height="32">
<path id="Stroke 21_2" fill-rule="evenodd" clip-rule="evenodd" d="M33.443 25.072C33.443 28.0227 32.3193 30.7993 30.3364 32.923C30.2391 33.0272 30.103 33.0863 29.9605 33.0863H13.8976L13.8867 33.0862L13.8763 33.0858H13.9292V32.0573H12.7883C12.3148 31.44 11.9064 30.7797 11.5683 30.0858H11.9287V29.0573H11.128C10.6612 27.7999 10.4142 26.455 10.4142 25.072C10.4142 23.267 11.308 19.5209 12.9152 14.2317L11.8589 14.0808C11.5777 14.0407 11.3823 13.7802 11.4225 13.499C11.4626 13.2178 11.7231 13.0224 12.0043 13.0626L13.2204 13.2362C13.2757 13.0576 13.3317 12.8773 13.3884 12.6955L11.2841 12.0642C11.012 11.9825 10.8577 11.6958 10.9393 11.4238C11.0209 11.1517 11.3076 10.9974 11.5797 11.079L13.6968 11.7142C14.1988 10.1285 14.7529 8.43012 15.3554 6.62727L14.9182 3.13561C14.8635 2.69868 15.3474 2.39955 15.7137 2.6438L20.0842 5.55743H23.773L28.1435 2.6438C28.5098 2.39958 28.9937 2.69861 28.9391 3.13549L28.5027 6.62724C29.1052 8.43067 29.6592 10.1294 30.1611 11.7151L32.2816 11.079C32.5537 10.9974 32.8404 11.1518 32.922 11.4238C33.0036 11.6959 32.8492 11.9826 32.5772 12.0642L30.4694 12.6964C30.5261 12.8781 30.5821 13.0582 30.6372 13.2366L31.8561 13.0626C32.1373 13.0224 32.3978 13.2178 32.4379 13.499C32.4781 13.7802 32.2827 14.0407 32.0015 14.0808L30.9424 14.2321C32.5497 19.5226 33.443 23.2671 33.443 25.072ZM14.2525 13.3836C14.2927 13.2537 14.3334 13.1229 14.3744 12.9913L16.2838 13.5642C16.5559 13.6458 16.8426 13.4914 16.9242 13.2194C17.0058 12.9473 16.8514 12.6606 16.5794 12.579L14.6828 12.01C15.1921 10.4003 15.7553 8.67409 16.3679 6.84257C16.3923 6.76954 16.4001 6.69195 16.3905 6.61553L16.0784 4.12311L19.6432 6.49963C19.7277 6.55595 19.8269 6.586 19.9285 6.586H23.9288C24.0303 6.586 24.1296 6.55595 24.214 6.49963L27.7791 4.12291L27.4676 6.61565C27.458 6.69201 27.4658 6.76954 27.4902 6.84252C28.1028 8.67462 28.6659 10.4011 29.1751 12.0108L27.2811 12.579C27.009 12.6606 26.8546 12.9473 26.9362 13.2193C27.0178 13.4914 27.3045 13.6458 27.5766 13.5642L29.4834 12.9922C29.5244 13.1236 29.565 13.2542 29.6052 13.384L28.3564 13.5623C28.0752 13.6025 27.8798 13.8629 27.92 14.1441C27.9601 14.4253 28.2206 14.6207 28.5018 14.5806L29.911 14.3793C31.5145 19.6443 32.4145 23.3744 32.4145 25.072C32.4145 27.6837 31.4481 30.1444 29.7339 32.0577H14.1241C12.4096 30.144 11.4428 27.6833 11.4428 25.072C11.4428 23.3743 12.3432 19.6426 13.9466 14.3789L15.3586 14.5806C15.6398 14.6207 15.9003 14.4253 15.9404 14.1441C15.9806 13.8629 15.7852 13.6025 15.504 13.5623L14.2525 13.3836ZM11.5683 30.0858H8.60982C8.07842 30.0858 7.67457 29.8454 7.40431 29.5025C7.13326 29.1601 6.99168 28.7139 7.11212 28.1973L8.89844 20.5403C9.59371 17.563 9.34551 14.4948 8.18141 11.6654L6.34129 7.19664C6.13357 6.69337 5.5585 6.45419 5.05386 6.65999C4.55035 6.86726 4.31031 7.44348 4.51765 7.94717L6.35794 12.4163C7.36457 14.861 7.57936 17.5168 6.97893 20.0919L5.19184 27.7494C4.94712 28.8001 5.19053 29.884 5.86094 30.7287C6.53158 31.5738 7.53193 32.0573 8.60982 32.0573H12.7883C13.0177 32.3563 13.2624 32.6452 13.5217 32.923C13.6141 33.022 13.7416 33.0803 13.8763 33.0858H8.60982C7.21796 33.0858 5.92096 32.4589 5.05526 31.3681C4.18977 30.2776 3.8742 28.8723 4.19013 27.5158L5.97725 19.8582C6.52903 17.4918 6.33191 15.0546 5.40684 12.808L3.56653 8.33875C3.14297 7.30978 3.63344 6.13238 4.6639 5.70821C5.69371 5.28824 6.86791 5.7766 7.29222 6.8046L9.13257 11.2739C10.3782 14.3015 10.6441 17.5883 9.90008 20.7741L8.11382 28.4309C8.0732 28.6051 8.1183 28.7473 8.21143 28.8649C8.30308 28.9812 8.43086 29.0573 8.60982 29.0573H11.128C11.258 29.4073 11.4049 29.7505 11.5683 30.0858ZM24.4434 11.0714C24.4434 11.3554 24.2131 11.5857 23.9291 11.5857C23.6451 11.5857 23.4148 11.3554 23.4148 11.0714C23.4148 9.97113 24.4325 9.1197 25.6477 9.1197C26.8624 9.1197 27.8814 9.97138 27.8814 11.0714C27.8814 11.3554 27.6511 11.5857 27.3671 11.5857C27.0831 11.5857 26.8528 11.3554 26.8528 11.0714C26.8528 10.5844 26.3311 10.1483 25.6477 10.1483C24.964 10.1483 24.4434 10.5838 24.4434 11.0714ZM19.9288 11.5857C20.2129 11.5857 20.4431 11.3554 20.4431 11.0714C20.4431 9.97113 19.4255 9.1197 18.2102 9.1197C16.9956 9.1197 15.9774 9.97133 15.9774 11.0714C15.9774 11.3554 16.2076 11.5857 16.4917 11.5857C16.7757 11.5857 17.006 11.3554 17.006 11.0714C17.006 10.5841 17.5271 10.1483 18.2102 10.1483C18.8939 10.1483 19.4145 10.5838 19.4145 11.0714C19.4145 11.3554 19.6448 11.5857 19.9288 11.5857Z" fill="white"/>
</mask>
<g mask="url(#mask1)">
<g id="@color-primary">
<rect id="Rectangle_2" width="36" height="36" fill="#32C850"/>
</g>
</g>
</g>
</svg>
