<svg width="36" height="36" viewBox="0 0 36 36" fill="none" xmlns="http://www.w3.org/2000/svg">
<g id="Icon / Multi Select / Coin">
<g id="Object">
<mask id="mask0" mask-type="alpha" maskUnits="userSpaceOnUse" x="4" y="4" width="12" height="29">
<path id="Fill 1" fill-rule="evenodd" clip-rule="evenodd" d="M4.42847 18.4285C4.42847 10.9963 9.42218 4.91568 15.6973 4.47168C10.8648 6.66082 7.42847 12.084 7.42847 18.4285C7.42847 24.7723 10.8648 30.1963 15.6982 32.3854C9.42218 31.9414 4.42847 25.86 4.42847 18.4285Z" fill="white"/>
</mask>
<g mask="url(#mask0)">
<g id="@color-secondary" opacity="0.2">
<rect id="Rectangle" width="36" height="36" fill="#32C850"/>
</g>
</g>
</g>
<path id="Stroke 27" fill-rule="evenodd" clip-rule="evenodd" d="M19.9286 3.41406V3.4249C20.0944 3.4177 20.261 3.41406 20.4284 3.41406C27.6349 3.41406 33.4432 10.1517 33.4432 18.4286C33.4432 26.7056 27.6349 33.4432 20.4284 33.4432C20.3814 33.4432 20.3344 33.4429 20.2875 33.4423H16.4289C9.22226 33.4423 3.41406 26.7054 3.41406 18.4286C3.41406 10.1517 9.22239 3.41406 16.4289 3.41406H19.9286ZM11.074 5.91433C12.4566 5.10697 13.9905 4.60249 15.6111 4.47476C14.7712 4.86077 13.9747 5.34473 13.232 5.91433H11.074ZM12.0438 6.9429C12.422 6.57493 12.8187 6.23136 13.232 5.91433H13.4285V6.9429H12.0438ZM10.3589 8.91436H7.64491C8.23036 8.17913 8.88267 7.51762 9.59036 6.9429H12.0438C11.4311 7.53902 10.8669 8.19918 10.3589 8.91436ZM9.68971 9.94293C9.9002 9.58886 10.1235 9.2457 10.3589 8.91436H10.4285V9.94293H9.68971ZM8.69941 11.9143H5.81984C6.13355 11.2205 6.49577 10.5614 6.90116 9.94293H9.68971C9.31829 10.5677 8.98679 11.2265 8.69941 11.9143ZM8.3102 12.9429C8.42907 12.5935 8.55897 12.2504 8.69941 11.9143H8.92849V12.9429H8.3102ZM7.77281 14.9143H4.82415C4.9747 14.2357 5.16781 13.5772 5.39994 12.9429H8.3102C8.09342 13.58 7.9133 14.2384 7.77281 14.9143ZM7.59191 15.9429C7.64202 15.5959 7.70244 15.2529 7.77281 14.9143H8.42878V15.9429H7.59191ZM7.42185 17.9144H4.45058C4.47134 17.2439 4.53252 16.5857 4.63133 15.9429H7.59191C7.49886 16.5872 7.44137 17.2453 7.42185 17.9144ZM7.42185 18.9429C7.41686 18.7722 7.41435 18.6007 7.41435 18.4286C7.41435 18.2565 7.41686 18.0851 7.42185 17.9144H7.92864V18.9429H7.42185ZM7.5919 20.9143H4.63132C4.53251 20.2715 4.47134 19.6133 4.45058 18.9429H7.42185C7.44137 19.6119 7.49885 20.27 7.5919 20.9143ZM7.77279 21.9429C7.70243 21.6043 7.642 21.2613 7.5919 20.9143H8.42878V21.9429H7.77279ZM8.31017 23.9143H5.39996C5.16782 23.28 4.9747 22.6215 4.82415 21.9429H7.77279C7.91328 22.6188 8.0934 23.2771 8.31017 23.9143ZM8.69938 24.9429C8.55895 24.6068 8.42905 24.2637 8.31017 23.9143H8.92849V24.9429H8.69938ZM9.68972 26.9144H6.90138C6.49592 26.2959 6.13365 25.6367 5.8199 24.9429H8.69938C8.98677 25.6307 9.31828 26.2895 9.68972 26.9144ZM10.3589 27.9429C10.1235 27.6116 9.90021 27.2684 9.68972 26.9144H10.4285V27.9429H10.3589ZM12.0438 29.9144H9.59108C8.88324 29.3397 8.2308 28.6782 7.64523 27.9429H10.3589C10.8669 28.6581 11.4311 29.3183 12.0438 29.9144ZM13.232 30.943C12.8187 30.6259 12.422 30.2824 12.0438 29.9144H13.4285V30.943H13.232ZM13.232 30.943C13.974 31.512 14.7698 31.9956 15.6089 32.3815C13.9896 32.2535 12.4568 31.7494 11.0752 30.943H13.232ZM20.4283 32.4138L20.4284 32.4147C27.0301 32.4147 32.4146 26.1686 32.4146 18.4287C32.4146 10.6887 27.0301 4.44265 20.4284 4.44265C13.8273 4.44265 8.44292 10.6888 8.44292 18.4287C8.44292 26.1152 13.7535 32.3287 20.2923 32.4138H20.4283ZM10.9428 18.4286C10.9428 18.7127 10.7125 18.9429 10.4285 18.9429C10.1445 18.9429 9.91421 18.7127 9.91421 18.4286C9.91421 17.7504 9.96258 17.0791 10.0581 16.4193C10.0988 16.1382 10.3597 15.9433 10.6408 15.984C10.9219 16.0247 11.1168 16.2856 11.0761 16.5667C10.9876 17.1777 10.9428 17.7997 10.9428 18.4286ZM11.1243 14.1363C11.389 14.2394 11.6871 14.1084 11.7902 13.8437C12.0178 13.2593 12.2887 12.6995 12.5992 12.1702C12.743 11.9252 12.6609 11.6101 12.4159 11.4664C12.171 11.3226 11.8558 11.4047 11.7121 11.6497C11.3738 12.2262 11.0792 12.8352 10.8318 13.4704C10.7287 13.735 10.8596 14.0332 11.1243 14.1363ZM14.315 9.95434C14.1128 10.1538 13.7872 10.1516 13.5878 9.94935C13.3883 9.74714 13.3905 9.42152 13.5927 9.22206C14.0836 8.73786 14.6124 8.30627 15.1723 7.93343C15.4087 7.77602 15.728 7.84006 15.8854 8.07648C16.0428 8.3129 15.9788 8.63217 15.7424 8.78959C15.2375 9.12577 14.7596 9.51581 14.315 9.95434ZM17.5934 7.28598C17.6695 7.55963 17.953 7.71978 18.2266 7.64368C18.8146 7.48018 19.4175 7.38247 20.0296 7.35286C20.3133 7.33913 20.5322 7.09802 20.5184 6.81432C20.5047 6.53062 20.2636 6.31176 19.9799 6.32549C19.2911 6.35882 18.6125 6.4688 17.9511 6.65271C17.6774 6.7288 17.5173 7.01233 17.5934 7.28598ZM22.7829 7.68755C22.5108 7.60626 22.3561 7.31973 22.4374 7.04758C22.5187 6.77543 22.8052 6.62072 23.0774 6.70202C23.7299 6.89697 24.3625 7.16361 24.9675 7.49745C25.2162 7.63467 25.3066 7.94751 25.1694 8.1962C25.0321 8.44489 24.7193 8.53525 24.4706 8.39803C23.9294 8.09937 23.3646 7.86132 22.7829 7.68755ZM26.6909 9.36748C26.4876 9.56576 26.4834 9.89136 26.6817 10.0947C27.1071 10.5311 27.4988 11.0111 27.8517 11.5288C28.0117 11.7635 28.3316 11.824 28.5663 11.664C28.801 11.504 28.8616 11.1841 28.7016 10.9494C28.3152 10.3826 27.8856 9.85618 27.4182 9.37671C27.2199 9.17334 26.8943 9.16921 26.6909 9.36748ZM29.1249 13.9964C29.0255 13.7304 29.1605 13.4341 29.4265 13.3346C29.6926 13.2351 29.9889 13.3701 30.0884 13.6362C30.3223 14.2618 30.5101 14.91 30.6493 15.575C30.7075 15.853 30.5294 16.1256 30.2514 16.1838C29.9734 16.242 29.7008 16.0638 29.6426 15.7858C29.514 15.1716 29.3407 14.5733 29.1249 13.9964ZM30.4343 18.1186C30.1503 18.1144 29.9167 18.3412 29.9125 18.6252C29.9031 19.254 29.8489 19.8753 29.751 20.4848C29.7059 20.7652 29.8968 21.0291 30.1772 21.0741C30.4576 21.1192 30.7215 20.9283 30.7665 20.6479C30.8723 19.9895 30.9308 19.3188 30.9409 18.6405C30.9451 18.3565 30.7183 18.1229 30.4343 18.1186ZM28.9925 23.1989C29.1 22.936 29.4003 22.8101 29.6632 22.9175C29.9261 23.025 30.0521 23.3253 29.9446 23.5882C29.6865 24.2194 29.3814 24.8235 29.0331 25.394C28.885 25.6364 28.5685 25.7129 28.3261 25.5649C28.0837 25.4169 28.0072 25.1003 28.1552 24.8579C28.4749 24.3345 28.7551 23.7795 28.9925 23.1989ZM27.1259 27.0605C26.9305 26.8544 26.605 26.8458 26.3989 27.0412C25.9459 27.4707 25.4603 27.8507 24.9484 28.1758C24.7087 28.3281 24.6378 28.6459 24.7901 28.8857C24.9423 29.1254 25.2601 29.1963 25.4999 29.044C26.0682 28.6831 26.606 28.2623 27.1066 27.7876C27.3127 27.5921 27.3214 27.2666 27.1259 27.0605ZM22.4412 29.2639C22.7166 29.1943 22.9962 29.3611 23.0658 29.6365C23.1354 29.9119 22.9686 30.1915 22.6932 30.2611C22.0284 30.4292 21.3474 30.5229 20.6572 30.5399C20.3732 30.5468 20.1374 30.3223 20.1304 30.0384C20.1234 29.7544 20.348 29.5186 20.6319 29.5116C21.2454 29.4965 21.8503 29.4132 22.4412 29.2639ZM18.218 29.7593C18.3056 29.4892 18.1577 29.1991 17.8875 29.1114C17.3104 28.9241 16.751 28.6732 16.2159 28.3624C15.9703 28.2198 15.6556 28.3032 15.5129 28.5488C15.3703 28.7944 15.4537 29.1092 15.6994 29.2518C16.297 29.5989 16.923 29.8798 17.57 30.0898C17.8402 30.1774 18.1303 30.0295 18.218 29.7593ZM14.0382 26.6187C14.2325 26.8259 14.2221 27.1514 14.0149 27.3457C13.8078 27.54 13.4823 27.5296 13.288 27.3224C12.83 26.8341 12.4104 26.2999 12.0344 25.7266C11.8787 25.489 11.945 25.1702 12.1825 25.0145C12.42 24.8587 12.7388 24.925 12.8946 25.1625C13.2382 25.6865 13.6211 26.174 14.0382 26.6187ZM11.3516 23.331C11.6193 23.2359 11.7591 22.9418 11.664 22.6742C11.4577 22.0937 11.2939 21.4926 11.175 20.8764C11.1211 20.5975 10.8514 20.4151 10.5725 20.4689C10.2937 20.5227 10.1112 20.7925 10.1651 21.0713C10.2938 21.7383 10.4711 22.3893 10.6948 23.0187C10.7899 23.2863 11.084 23.4261 11.3516 23.331ZM15.4516 18.024C15.4516 18.2614 15.4696 18.5177 15.4876 18.6823H14.0802V20.2903H15.8167C16.6945 22.8129 19.0156 24.2031 21.4833 24.2031C22.9465 24.2031 24.1893 23.6914 25.049 22.9594L24.0239 21.3874C23.4033 21.972 22.5076 22.2651 21.4833 22.2651C20.0579 22.2651 18.7782 21.6249 18.1019 20.2903H21.0453L21.7953 18.6823H17.663C17.645 18.5546 17.6262 18.3351 17.6262 18.0051C17.6262 17.7137 17.645 17.5123 17.663 17.3657H22.343L23.1102 15.7749H18.083C18.7593 14.3683 20.0947 13.71 21.5022 13.71C22.397 13.71 23.1839 13.9114 23.7873 14.3494L24.6282 12.6497C23.8062 12.0831 22.781 11.808 21.5022 11.808C19.0525 11.808 16.6765 13.2171 15.7987 15.7749H14.0802V17.3657H15.4876C15.4696 17.5483 15.4516 17.7317 15.4516 18.024Z" fill="#32C850"/>
<mask id="mask1" mask-type="alpha" maskUnits="userSpaceOnUse" x="3" y="3" width="31" height="31">
<path id="Stroke 27_2" fill-rule="evenodd" clip-rule="evenodd" d="M19.9286 3.41406V3.4249C20.0944 3.4177 20.261 3.41406 20.4284 3.41406C27.6349 3.41406 33.4432 10.1517 33.4432 18.4286C33.4432 26.7056 27.6349 33.4432 20.4284 33.4432C20.3814 33.4432 20.3344 33.4429 20.2875 33.4423H16.4289C9.22226 33.4423 3.41406 26.7054 3.41406 18.4286C3.41406 10.1517 9.22239 3.41406 16.4289 3.41406H19.9286ZM11.074 5.91433C12.4566 5.10697 13.9905 4.60249 15.6111 4.47476C14.7712 4.86077 13.9747 5.34473 13.232 5.91433H11.074ZM12.0438 6.9429C12.422 6.57493 12.8187 6.23136 13.232 5.91433H13.4285V6.9429H12.0438ZM10.3589 8.91436H7.64491C8.23036 8.17913 8.88267 7.51762 9.59036 6.9429H12.0438C11.4311 7.53902 10.8669 8.19918 10.3589 8.91436ZM9.68971 9.94293C9.9002 9.58886 10.1235 9.2457 10.3589 8.91436H10.4285V9.94293H9.68971ZM8.69941 11.9143H5.81984C6.13355 11.2205 6.49577 10.5614 6.90116 9.94293H9.68971C9.31829 10.5677 8.98679 11.2265 8.69941 11.9143ZM8.3102 12.9429C8.42907 12.5935 8.55897 12.2504 8.69941 11.9143H8.92849V12.9429H8.3102ZM7.77281 14.9143H4.82415C4.9747 14.2357 5.16781 13.5772 5.39994 12.9429H8.3102C8.09342 13.58 7.9133 14.2384 7.77281 14.9143ZM7.59191 15.9429C7.64202 15.5959 7.70244 15.2529 7.77281 14.9143H8.42878V15.9429H7.59191ZM7.42185 17.9144H4.45058C4.47134 17.2439 4.53252 16.5857 4.63133 15.9429H7.59191C7.49886 16.5872 7.44137 17.2453 7.42185 17.9144ZM7.42185 18.9429C7.41686 18.7722 7.41435 18.6007 7.41435 18.4286C7.41435 18.2565 7.41686 18.0851 7.42185 17.9144H7.92864V18.9429H7.42185ZM7.5919 20.9143H4.63132C4.53251 20.2715 4.47134 19.6133 4.45058 18.9429H7.42185C7.44137 19.6119 7.49885 20.27 7.5919 20.9143ZM7.77279 21.9429C7.70243 21.6043 7.642 21.2613 7.5919 20.9143H8.42878V21.9429H7.77279ZM8.31017 23.9143H5.39996C5.16782 23.28 4.9747 22.6215 4.82415 21.9429H7.77279C7.91328 22.6188 8.0934 23.2771 8.31017 23.9143ZM8.69938 24.9429C8.55895 24.6068 8.42905 24.2637 8.31017 23.9143H8.92849V24.9429H8.69938ZM9.68972 26.9144H6.90138C6.49592 26.2959 6.13365 25.6367 5.8199 24.9429H8.69938C8.98677 25.6307 9.31828 26.2895 9.68972 26.9144ZM10.3589 27.9429C10.1235 27.6116 9.90021 27.2684 9.68972 26.9144H10.4285V27.9429H10.3589ZM12.0438 29.9144H9.59108C8.88324 29.3397 8.2308 28.6782 7.64523 27.9429H10.3589C10.8669 28.6581 11.4311 29.3183 12.0438 29.9144ZM13.232 30.943C12.8187 30.6259 12.422 30.2824 12.0438 29.9144H13.4285V30.943H13.232ZM13.232 30.943C13.974 31.512 14.7698 31.9956 15.6089 32.3815C13.9896 32.2535 12.4568 31.7494 11.0752 30.943H13.232ZM20.4283 32.4138L20.4284 32.4147C27.0301 32.4147 32.4146 26.1686 32.4146 18.4287C32.4146 10.6887 27.0301 4.44265 20.4284 4.44265C13.8273 4.44265 8.44292 10.6888 8.44292 18.4287C8.44292 26.1152 13.7535 32.3287 20.2923 32.4138H20.4283ZM10.9428 18.4286C10.9428 18.7127 10.7125 18.9429 10.4285 18.9429C10.1445 18.9429 9.91421 18.7127 9.91421 18.4286C9.91421 17.7504 9.96258 17.0791 10.0581 16.4193C10.0988 16.1382 10.3597 15.9433 10.6408 15.984C10.9219 16.0247 11.1168 16.2856 11.0761 16.5667C10.9876 17.1777 10.9428 17.7997 10.9428 18.4286ZM11.1243 14.1363C11.389 14.2394 11.6871 14.1084 11.7902 13.8437C12.0178 13.2593 12.2887 12.6995 12.5992 12.1702C12.743 11.9252 12.6609 11.6101 12.4159 11.4664C12.171 11.3226 11.8558 11.4047 11.7121 11.6497C11.3738 12.2262 11.0792 12.8352 10.8318 13.4704C10.7287 13.735 10.8596 14.0332 11.1243 14.1363ZM14.315 9.95434C14.1128 10.1538 13.7872 10.1516 13.5878 9.94935C13.3883 9.74714 13.3905 9.42152 13.5927 9.22206C14.0836 8.73786 14.6124 8.30627 15.1723 7.93343C15.4087 7.77602 15.728 7.84006 15.8854 8.07648C16.0428 8.3129 15.9788 8.63217 15.7424 8.78959C15.2375 9.12577 14.7596 9.51581 14.315 9.95434ZM17.5934 7.28598C17.6695 7.55963 17.953 7.71978 18.2266 7.64368C18.8146 7.48018 19.4175 7.38247 20.0296 7.35286C20.3133 7.33913 20.5322 7.09802 20.5184 6.81432C20.5047 6.53062 20.2636 6.31176 19.9799 6.32549C19.2911 6.35882 18.6125 6.4688 17.9511 6.65271C17.6774 6.7288 17.5173 7.01233 17.5934 7.28598ZM22.7829 7.68755C22.5108 7.60626 22.3561 7.31973 22.4374 7.04758C22.5187 6.77543 22.8052 6.62072 23.0774 6.70202C23.7299 6.89697 24.3625 7.16361 24.9675 7.49745C25.2162 7.63467 25.3066 7.94751 25.1694 8.1962C25.0321 8.44489 24.7193 8.53525 24.4706 8.39803C23.9294 8.09937 23.3646 7.86132 22.7829 7.68755ZM26.6909 9.36748C26.4876 9.56576 26.4834 9.89136 26.6817 10.0947C27.1071 10.5311 27.4988 11.0111 27.8517 11.5288C28.0117 11.7635 28.3316 11.824 28.5663 11.664C28.801 11.504 28.8616 11.1841 28.7016 10.9494C28.3152 10.3826 27.8856 9.85618 27.4182 9.37671C27.2199 9.17334 26.8943 9.16921 26.6909 9.36748ZM29.1249 13.9964C29.0255 13.7304 29.1605 13.4341 29.4265 13.3346C29.6926 13.2351 29.9889 13.3701 30.0884 13.6362C30.3223 14.2618 30.5101 14.91 30.6493 15.575C30.7075 15.853 30.5294 16.1256 30.2514 16.1838C29.9734 16.242 29.7008 16.0638 29.6426 15.7858C29.514 15.1716 29.3407 14.5733 29.1249 13.9964ZM30.4343 18.1186C30.1503 18.1144 29.9167 18.3412 29.9125 18.6252C29.9031 19.254 29.8489 19.8753 29.751 20.4848C29.7059 20.7652 29.8968 21.0291 30.1772 21.0741C30.4576 21.1192 30.7215 20.9283 30.7665 20.6479C30.8723 19.9895 30.9308 19.3188 30.9409 18.6405C30.9451 18.3565 30.7183 18.1229 30.4343 18.1186ZM28.9925 23.1989C29.1 22.936 29.4003 22.8101 29.6632 22.9175C29.9261 23.025 30.0521 23.3253 29.9446 23.5882C29.6865 24.2194 29.3814 24.8235 29.0331 25.394C28.885 25.6364 28.5685 25.7129 28.3261 25.5649C28.0837 25.4169 28.0072 25.1003 28.1552 24.8579C28.4749 24.3345 28.7551 23.7795 28.9925 23.1989ZM27.1259 27.0605C26.9305 26.8544 26.605 26.8458 26.3989 27.0412C25.9459 27.4707 25.4603 27.8507 24.9484 28.1758C24.7087 28.3281 24.6378 28.6459 24.7901 28.8857C24.9423 29.1254 25.2601 29.1963 25.4999 29.044C26.0682 28.6831 26.606 28.2623 27.1066 27.7876C27.3127 27.5921 27.3214 27.2666 27.1259 27.0605ZM22.4412 29.2639C22.7166 29.1943 22.9962 29.3611 23.0658 29.6365C23.1354 29.9119 22.9686 30.1915 22.6932 30.2611C22.0284 30.4292 21.3474 30.5229 20.6572 30.5399C20.3732 30.5468 20.1374 30.3223 20.1304 30.0384C20.1234 29.7544 20.348 29.5186 20.6319 29.5116C21.2454 29.4965 21.8503 29.4132 22.4412 29.2639ZM18.218 29.7593C18.3056 29.4892 18.1577 29.1991 17.8875 29.1114C17.3104 28.9241 16.751 28.6732 16.2159 28.3624C15.9703 28.2198 15.6556 28.3032 15.5129 28.5488C15.3703 28.7944 15.4537 29.1092 15.6994 29.2518C16.297 29.5989 16.923 29.8798 17.57 30.0898C17.8402 30.1774 18.1303 30.0295 18.218 29.7593ZM14.0382 26.6187C14.2325 26.8259 14.2221 27.1514 14.0149 27.3457C13.8078 27.54 13.4823 27.5296 13.288 27.3224C12.83 26.8341 12.4104 26.2999 12.0344 25.7266C11.8787 25.489 11.945 25.1702 12.1825 25.0145C12.42 24.8587 12.7388 24.925 12.8946 25.1625C13.2382 25.6865 13.6211 26.174 14.0382 26.6187ZM11.3516 23.331C11.6193 23.2359 11.7591 22.9418 11.664 22.6742C11.4577 22.0937 11.2939 21.4926 11.175 20.8764C11.1211 20.5975 10.8514 20.4151 10.5725 20.4689C10.2937 20.5227 10.1112 20.7925 10.1651 21.0713C10.2938 21.7383 10.4711 22.3893 10.6948 23.0187C10.7899 23.2863 11.084 23.4261 11.3516 23.331ZM15.4516 18.024C15.4516 18.2614 15.4696 18.5177 15.4876 18.6823H14.0802V20.2903H15.8167C16.6945 22.8129 19.0156 24.2031 21.4833 24.2031C22.9465 24.2031 24.1893 23.6914 25.049 22.9594L24.0239 21.3874C23.4033 21.972 22.5076 22.2651 21.4833 22.2651C20.0579 22.2651 18.7782 21.6249 18.1019 20.2903H21.0453L21.7953 18.6823H17.663C17.645 18.5546 17.6262 18.3351 17.6262 18.0051C17.6262 17.7137 17.645 17.5123 17.663 17.3657H22.343L23.1102 15.7749H18.083C18.7593 14.3683 20.0947 13.71 21.5022 13.71C22.397 13.71 23.1839 13.9114 23.7873 14.3494L24.6282 12.6497C23.8062 12.0831 22.781 11.808 21.5022 11.808C19.0525 11.808 16.6765 13.2171 15.7987 15.7749H14.0802V17.3657H15.4876C15.4696 17.5483 15.4516 17.7317 15.4516 18.024Z" fill="white"/>
</mask>
<g mask="url(#mask1)">
<g id="@color-primary">
<rect id="Rectangle_2" width="36" height="36" fill="#32C850"/>
</g>
</g>
</g>
</svg>
