<svg width="474" height="324" viewBox="0 0 474 324" fill="none" xmlns="http://www.w3.org/2000/svg">
<path fill-rule="evenodd" clip-rule="evenodd" d="M458.351 258.247C458.351 282.985 359.212 303.04 236.919 303.04C114.626 303.04 15.4868 282.985 15.4868 258.247C15.4868 233.509 114.626 213.455 236.919 213.455C359.212 213.455 458.351 233.509 458.351 258.247Z" fill="#1C2033"/>
<path d="M106.373 249.231H160.839" stroke="#E3F6EB" stroke-width="2" stroke-linecap="round" stroke-linejoin="round"/>
<path d="M349.658 66.5698C349.232 61.0211 350.193 55.0298 353.956 50.9086C357.261 47.2894 362.566 45.6023 367.37 46.6431C372.174 47.6831 376.294 51.4114 377.784 56.0689C378.519 58.3636 378.561 61.1053 376.99 62.9377C374.79 65.5083 370.261 64.9076 368.05 62.3472C365.84 59.7852 365.597 56.0207 366.4 52.741C367.697 47.4519 371.527 42.8348 376.505 40.5633C381.483 38.2926 387.502 38.4146 392.382 40.8856" stroke="#165D24" stroke-width="2" stroke-linecap="round" stroke-linejoin="round"/>
<path fill-rule="evenodd" clip-rule="evenodd" d="M148.42 49.5983L139.072 43.4987C129.13 37.0106 116.658 35.6595 105.543 39.8692L101.66 41.3397C97.6805 42.8472 97.633 48.4277 101.587 50.0014C109.523 53.1599 115.272 60.1474 116.813 68.5074L148.42 49.5983Z" fill="#165D24"/>
<path fill-rule="evenodd" clip-rule="evenodd" d="M93.7891 121.014C93.7891 154.184 108.102 187.333 140.954 208.507V249.231H170.674L178.822 224.643C182.678 225.691 185.91 226.53 191.098 227.349V249.231H224.068L234.506 231.438C238.841 231.438 242.97 231.24 247.293 231.051V249.231H280.603L290.945 225.166H291.14C293.32 224.307 294.843 223.555 297.436 222.916V249.231H326.668L345.312 196.457C364.534 178.412 374.169 154.633 374.827 128.349C376.208 73.1872 319.339 21.0977 234.41 21.0977C156.858 21.0977 93.7891 65.8319 93.7891 121.014Z" fill="#32C850"/>
<path d="M155 59.4999C159.4 54.2999 151.667 44.8332 147 39.9999C162.6 35.9999 179.333 51.3332 186 59.4999" stroke="#165D24"/>
<path fill-rule="evenodd" clip-rule="evenodd" d="M345.312 196.356L338.045 199.265C328.671 203.017 321.984 211.409 320.458 221.338L316.198 249.031H326.669L345.312 196.356Z" fill="#165D24"/>
<path fill-rule="evenodd" clip-rule="evenodd" d="M178.556 224.542C170.71 223.511 163.451 228.841 162.136 236.6L160.029 249.031H170.674L178.556 224.542Z" fill="#165D24"/>
<path fill-rule="evenodd" clip-rule="evenodd" d="M160.029 105.318C160.029 109.471 163.417 112.838 167.594 112.838C171.772 112.838 175.159 109.471 175.159 105.318C175.159 101.164 171.772 97.7974 167.594 97.7974C163.417 97.7974 160.029 101.164 160.029 105.318Z" fill="#1C2033"/>
<path fill-rule="evenodd" clip-rule="evenodd" d="M106.666 105.318C106.666 109.471 110.053 112.838 114.231 112.838C118.408 112.838 121.795 109.471 121.795 105.318C121.795 101.164 118.408 97.7974 114.231 97.7974C110.053 97.7974 106.666 101.164 106.666 105.318Z" fill="#1C2033"/>
<path fill-rule="evenodd" clip-rule="evenodd" d="M257.227 37.4752C247.387 35.6669 237.314 35.4907 227.417 36.9544L226.052 37.1555C223.933 37.134 222.234 35.4099 222.256 33.3034L222.273 31.6944C222.295 29.5888 224.03 27.899 226.148 27.9214L226.858 27.8114C236.726 26.2833 246.781 26.3864 256.615 28.1165L257.323 28.242C259.441 28.2626 261.14 29.9875 261.118 32.0932L261.101 33.7022C261.08 35.8087 259.345 37.4967 257.227 37.4752Z" fill="#165D24"/>
<path d="M213.048 61.8062L217.767 67.9771L207.804 68.3029C195.439 49.4747 175.534 45.3451 167.127 45.6338C167.779 43.7294 169.511 42.1925 171.917 42.1356C188.009 41.7497 203.308 49.0672 213.048 61.8062Z" fill="#165D24"/>
<path fill-rule="evenodd" clip-rule="evenodd" d="M129.095 164.07C149.344 164.07 166.014 154.4 166.014 141.929C166.014 129.459 149.854 119.789 129.606 119.789H107.623V164.282L129.095 164.07Z" fill="#165D24"/>
<path fill-rule="evenodd" clip-rule="evenodd" d="M148.841 142.035C148.841 154.952 131.669 165.423 110.486 165.423C89.3022 165.423 72.1304 154.952 72.1304 142.035C72.1304 129.12 89.3022 118.648 110.486 118.648C131.669 118.648 148.841 129.12 148.841 142.035Z" fill="#32C850"/>
<path fill-rule="evenodd" clip-rule="evenodd" d="M93.2303 134.339C90.9963 135.501 89.3839 138.769 89.3839 142.628C89.3839 146.487 90.9963 149.755 93.2303 150.916C95.4651 149.755 97.0766 146.487 97.0766 142.628C97.0766 138.769 95.4651 135.501 93.2303 134.339Z" fill="#1C2033"/>
<path fill-rule="evenodd" clip-rule="evenodd" d="M119.758 134.339C117.523 135.501 115.912 138.769 115.912 142.628C115.912 146.487 117.523 149.755 119.758 150.916C121.992 149.755 123.603 146.487 123.603 142.628C123.603 138.769 121.992 135.501 119.758 134.339Z" fill="#1C2033"/>
<path d="M97.7273 249.231H87.3528" stroke="#E3F6EB" stroke-width="2" stroke-linecap="round" stroke-linejoin="round"/>
<path d="M407.234 249.231H416.744" stroke="#E3F6EB" stroke-width="2" stroke-linecap="round" stroke-linejoin="round"/>
<path d="M184.333 266.247H202.489" stroke="#E3F6EB" stroke-width="2" stroke-linecap="round" stroke-linejoin="round"/>
<path d="M257.668 249.231H397.724" stroke="#E3F6EB" stroke-width="2" stroke-linecap="round" stroke-linejoin="round"/>
<path fill-rule="evenodd" clip-rule="evenodd" d="M197.354 264.452C197.354 268.335 206.471 271.279 218.001 271.279C229.531 271.279 238.648 267.931 238.648 264.048V257.826H197.523L197.354 264.452Z" fill="#F9A646"/>
<path fill-rule="evenodd" clip-rule="evenodd" d="M239.276 257.019C239.276 260.901 229.928 264.048 218.4 264.048C206.869 264.048 197.523 260.901 197.523 257.019C197.523 253.136 206.869 249.989 218.4 249.989C229.928 249.989 239.276 253.136 239.276 257.019Z" fill="#FFD300"/>
<path fill-rule="evenodd" clip-rule="evenodd" d="M194.354 253.177C194.387 257.06 203.676 260.129 215.205 260.034C226.735 259.936 235.971 256.712 235.938 252.83L235.878 245.801L194.463 246.146L194.354 253.177Z" fill="#F9A646"/>
<path fill-rule="evenodd" clip-rule="evenodd" d="M236.215 245.798C236.247 249.68 226.928 252.905 215.398 253.001C203.869 253.097 194.496 250.028 194.463 246.146C194.43 242.264 203.75 239.039 215.28 238.942C226.809 238.847 236.183 241.915 236.215 245.798Z" fill="#FFD300"/>
<path fill-rule="evenodd" clip-rule="evenodd" d="M213.824 246.147C213.856 250.03 223.145 253.1 234.674 253.003C246.204 252.907 255.44 249.682 255.407 245.801L255.347 238.771L213.933 239.116L213.824 246.147Z" fill="#F9A646"/>
<path fill-rule="evenodd" clip-rule="evenodd" d="M255.685 238.768C255.717 242.651 246.398 245.876 234.868 245.972C223.339 246.067 213.965 242.999 213.933 239.116C213.9 235.235 223.22 232.009 234.75 231.913C246.278 231.817 255.652 234.886 255.685 238.768Z" fill="#FFD300"/>
<path fill-rule="evenodd" clip-rule="evenodd" d="M207.344 234.2C207.376 238.083 216.665 241.152 228.195 241.057C239.724 240.96 248.96 237.736 248.927 233.854L248.867 226.824L207.452 227.17L207.344 234.2Z" fill="#F9A646"/>
<path fill-rule="evenodd" clip-rule="evenodd" d="M249.205 226.822C249.237 230.704 239.918 233.93 228.388 234.025C216.859 234.121 207.485 231.052 207.452 227.17C207.42 223.288 216.739 220.063 228.269 219.966C239.798 219.871 249.172 222.939 249.205 226.822Z" fill="#FFD300"/>
<path fill-rule="evenodd" clip-rule="evenodd" d="M355.824 274.803C355.795 278.314 364.151 281.228 374.579 281.31C385.008 281.393 393.409 278.613 393.437 275.102L393.488 268.743L356.027 268.447L355.824 274.803Z" fill="#F9A646"/>
<path fill-rule="evenodd" clip-rule="evenodd" d="M393.793 268.745C393.764 272.257 385.287 275.036 374.859 274.954C364.43 274.871 355.998 271.957 356.027 268.446C356.055 264.934 364.531 262.155 374.961 262.237C385.389 262.32 393.82 265.234 393.793 268.745Z" fill="#FFD300"/>
<path fill-rule="evenodd" clip-rule="evenodd" d="M304.97 253.298C304.943 256.81 313.298 259.723 323.726 259.805C334.155 259.888 342.556 257.108 342.584 253.596L342.634 247.238L305.173 246.941L304.97 253.298Z" fill="#F9A646"/>
<path fill-rule="evenodd" clip-rule="evenodd" d="M342.939 247.241C342.911 250.752 334.434 253.531 324.006 253.449C313.577 253.366 305.146 250.452 305.173 246.941C305.202 243.429 313.679 240.649 324.108 240.733C334.536 240.814 342.967 243.729 342.939 247.241Z" fill="#FFD300"/>
<path fill-rule="evenodd" clip-rule="evenodd" d="M71.059 272.143C71.0314 275.655 79.3863 278.569 89.8144 278.65C100.243 278.734 108.645 275.953 108.673 272.441L108.723 266.083L71.2622 265.787L71.059 272.143Z" fill="#F9A646"/>
<path fill-rule="evenodd" clip-rule="evenodd" d="M109.028 266.086C109 269.597 100.523 272.376 90.0945 272.295C79.6655 272.211 71.2336 269.298 71.2622 265.786C71.2907 262.274 79.7675 259.495 90.1965 259.578C100.625 259.66 109.056 262.574 109.028 266.086Z" fill="#FFD300"/>
<path fill-rule="evenodd" clip-rule="evenodd" d="M94.5326 263.789C93.7614 267.216 101.313 271.812 111.491 274.074C121.669 276.336 130.47 275.375 131.24 271.948L132.636 265.742L96.0766 257.616L94.5326 263.789Z" fill="#F9A646"/>
<path fill-rule="evenodd" clip-rule="evenodd" d="M132.934 265.809C132.163 269.236 123.287 270.18 113.109 267.918C102.932 265.656 95.3063 261.044 96.0767 257.617C96.8478 254.189 105.722 253.245 115.901 255.508C126.078 257.77 133.704 262.382 132.934 265.809Z" fill="#FFD300"/>
<path fill-rule="evenodd" clip-rule="evenodd" d="M112.257 278.246C112.229 281.758 120.584 284.672 131.012 284.753C141.441 284.837 149.843 282.056 149.87 278.544L149.921 272.186L112.46 271.89L112.257 278.246Z" fill="#F9A646"/>
<path fill-rule="evenodd" clip-rule="evenodd" d="M150.225 272.189C150.198 275.701 141.72 278.479 131.292 278.398C120.863 278.314 112.432 275.401 112.46 271.889C112.488 268.377 120.965 265.598 131.394 265.681C141.822 265.763 150.254 268.677 150.225 272.189Z" fill="#FFD300"/>
<path d="M250.751 275.016H289.656" stroke="#E3F6EB" stroke-width="2" stroke-linecap="round" stroke-linejoin="round"/>
<path fill-rule="evenodd" clip-rule="evenodd" d="M237.103 255.355C235.529 258.909 242.731 265.5 253.284 270.117C263.836 274.735 273.589 275.564 275.163 272.011L278.011 265.577L240.105 248.989L237.103 255.355Z" fill="#F9A646"/>
<path fill-rule="evenodd" clip-rule="evenodd" d="M278.32 265.711C276.747 269.265 266.916 268.402 256.364 263.785C245.81 259.167 238.533 252.542 240.105 248.989C241.679 245.435 251.509 246.299 262.061 250.916C272.614 255.534 279.893 262.158 278.32 265.711Z" fill="#FFD300"/>
<path fill-rule="evenodd" clip-rule="evenodd" d="M205.84 174.568C212.446 176.113 213.706 177.365 215.259 183.932C216.813 177.365 218.072 176.113 224.677 174.568C218.072 173.024 216.813 171.772 215.259 165.205C213.706 171.772 212.446 173.024 205.84 174.568Z" fill="#E3F6EB"/>
<path fill-rule="evenodd" clip-rule="evenodd" d="M53.6897 250.227C60.2957 251.772 61.5553 253.025 63.1089 259.592C64.6616 253.025 65.9212 251.772 72.5272 250.227C65.9212 248.683 64.6616 247.43 63.1089 240.863C61.5553 247.43 60.2957 248.683 53.6897 250.227Z" fill="#165D24"/>
<path fill-rule="evenodd" clip-rule="evenodd" d="M70.257 213.658C78.3084 215.541 79.8447 217.067 81.7381 225.072C83.6332 217.067 85.1677 215.541 93.2201 213.658C85.1677 211.776 83.6332 210.248 81.7381 202.244C79.8447 210.248 78.3084 211.776 70.257 213.658Z" fill="#32C850"/>
<path fill-rule="evenodd" clip-rule="evenodd" d="M383.021 263.876C389.627 265.421 390.887 266.674 392.441 273.241C393.994 266.674 395.253 265.421 401.859 263.876C395.253 262.332 393.994 261.079 392.441 254.512C390.887 261.079 389.627 262.332 383.021 263.876Z" fill="#165D24"/>
<path fill-rule="evenodd" clip-rule="evenodd" d="M328.053 206.605C338.295 209.001 340.247 210.942 342.658 221.124C345.066 210.942 347.019 209.001 357.261 206.605C347.019 204.211 345.066 202.269 342.658 192.086C340.247 202.269 338.295 204.211 328.053 206.605Z" fill="#32C850"/>
<path fill-rule="evenodd" clip-rule="evenodd" d="M176.81 206.542C185.723 208.626 187.422 210.316 189.518 219.175C191.615 210.316 193.315 208.626 202.226 206.542C193.315 204.458 191.615 202.768 189.518 193.909C187.422 202.768 185.723 204.458 176.81 206.542Z" fill="#165D24"/>
</svg>
