<svg width="101" height="121" viewBox="0 0 101 121" fill="none" xmlns="http://www.w3.org/2000/svg">
<mask id="mask0" mask-type="alpha" maskUnits="userSpaceOnUse" x="0" y="49" width="101" height="72">
<ellipse cx="50.5" cy="84.5029" rx="50" ry="35.5" fill="#F1F5F5"/>
</mask>
<g mask="url(#mask0)">
<path d="M72.7998 85.635C72.7998 85.635 99.0534 89.2309 106.325 94.4387C113.598 99.6466 120.5 132.506 120.5 132.506C120.5 132.506 12.6507 148.005 -6.57726 131.142C-6.57726 131.142 -13.2331 99.7706 -1.77027 86.875C-1.77027 86.875 11.0484 76.8312 41.3694 76.9552L72.7998 85.635Z" fill="#32C850"/>
<path d="M36.735 76.4844L25.568 77.7987C25.568 77.7987 28.8466 78.1211 31.8048 80.6011C34.7629 83.081 51.0327 102.598 59.5867 105.723C60.4002 106.392 63.7035 108.525 68.1407 107.707C68.1407 107.707 57.2942 106.045 53.6704 99.9445C50.0467 93.8191 37.5732 84.2466 37.5732 84.2466C37.5732 84.2466 34.4424 80.6011 39.0522 80.1051C43.662 79.6091 36.735 76.4844 36.735 76.4844Z" fill="#1B9B30"/>
<path d="M78.1491 93.6953C78.1491 93.6953 73.5393 106.269 69.7677 106.913C65.9714 107.583 78.1491 93.6953 78.1491 93.6953Z" fill="#1B9B30"/>
</g>
<path d="M37.1294 55.752C37.1294 55.752 37.1787 75.9634 33.9741 79.1873L52.5858 96.4228C52.5858 96.4228 60.8439 103.615 67.3765 103.615C73.9091 103.615 75.5114 73.9794 75.5114 73.9794L37.1294 55.752Z" fill="#EB9A70"/>
<path d="M64.5416 87.1229C64.5416 87.1229 72.923 86.627 74.1556 84.147C75.3881 81.6671 75.2649 76.5832 75.2649 76.5832L37.4252 55.2559L36.8089 63.1916C36.8089 63.1916 34.7136 77.9472 33.6043 78.4432C32.495 78.9392 37.0554 81.9151 37.0554 81.9151L56.2834 99.3986C56.2834 99.3986 64.0486 104.234 67.8695 103.614C71.6905 102.994 57.6392 94.9347 59.7346 90.4708C61.83 86.007 64.5416 87.1229 64.5416 87.1229Z" fill="#B9664A"/>
<path d="M78.4696 27.4808C78.4696 27.4808 83.6463 26.4888 82.9808 15.5771C82.9808 15.5771 80.8361 4.83905 69.3486 5.97981C68.8556 5.65742 67.5491 6.72379 63.4323 4.07027C59.3155 1.41675 51.1067 -1.21198 45.7574 0.598369C40.408 2.40872 37.1294 3.74788 32.8647 10.9397C32.8647 10.9397 30.3996 14.6596 27.688 16.1475C24.9763 17.6355 18.7396 17.1395 22.5112 25.3977C26.2829 33.6558 27.121 34.251 27.121 35.8878C27.121 37.5493 26.554 39.5333 27.614 40.922C28.674 42.3356 35.0834 49.0314 35.0834 49.0314C35.0834 49.0314 36.4885 54.0656 37.1294 55.7272C37.795 57.3887 40.7531 61.7534 40.7531 61.7534C40.7531 61.7534 41.9118 63.663 42.3062 66.2917C42.7252 68.9452 41.9857 70.5076 44.7713 71.9211C47.5569 73.3347 50.1946 74.5746 52.2406 76.385C54.2867 78.1953 54.2127 79.2865 59.9565 79.5345C65.7002 79.7825 71.0495 80.5265 73.8351 77.873C76.6207 75.2194 77.7793 73.4835 78.5928 72.3427C79.4063 71.1771 78.5928 67.5564 79.0858 65.6469C79.5789 63.7374 84.1887 58.8767 81.7975 53.5696C79.4556 48.3122 78.4696 27.4808 78.4696 27.4808Z" fill="#767676"/>
<path d="M31.7061 13.3455C31.7061 13.3455 32.5196 13.767 35.8229 13.5191C39.1015 13.2711 42.4048 11.3615 41.5666 15.007C40.7285 18.6525 42.6266 22.3724 48.6416 22.4468C54.6318 22.5212 67.8695 20.3885 71.8137 16.5694C75.7579 12.7503 78.297 14.5854 77.4096 17.5613C76.4975 20.5373 75.7579 20.4629 75.7579 20.4629C75.7579 20.4629 73.2928 19.8925 71.8137 20.8844C70.3347 21.8764 63.9253 23.786 56.949 23.3644C49.9727 22.9428 46.6695 21.9508 42.7253 25.1003C38.7811 28.2498 38.288 30.8042 38.7071 31.9697C39.1262 33.1353 40.7532 33.2097 40.7532 33.2097C40.7532 33.2097 42.0597 33.3833 39.5945 35.268C37.1294 37.1776 37.9429 37.0784 39.2741 37.004C40.5806 36.9296 41.3201 36.1856 39.4466 38.7399C37.5485 41.2943 37.1541 42.7822 38.288 44.3694C39.4466 45.9317 39.8411 49.0068 38.1155 52.1315C36.3899 55.2811 38.1155 52.1315 38.1155 52.1315C38.1155 52.1315 37.0555 53.4459 39.422 55.6778C41.8132 57.9098 44.4262 59.2241 44.4262 59.2241C44.4262 59.2241 45.6588 60.5385 44.3522 62.1257C43.0457 63.688 42.7992 64.7792 44.8453 65.2752C46.8913 65.7712 50.022 66.0935 47.8034 68.4991C45.5848 70.9046 47.3843 70.6566 50.2685 71.4006C53.1527 72.1446 58.1569 72.963 58.4774 75.4429C58.7979 77.9228 66.7849 77.1788 66.7849 77.1788C66.7849 77.1788 75.4128 76.3605 77.4589 73.7813C77.4589 73.7813 76.0537 78.3196 72.2821 79.4108C68.5105 80.4771 57.8118 80.6507 55.5193 79.1628C53.2267 77.6748 49.2825 74.1285 46.0778 72.7894C42.8732 71.475 42.6266 71.0534 42.1336 67.5815C41.6406 64.1096 41.0736 62.3737 38.1894 58.4802C35.3052 54.5867 35.0587 49.0564 35.0587 49.0564L27.5894 40.9471C27.5894 40.9471 26.2829 40.1287 27.0964 35.9128L22.4866 25.8195C22.4866 25.8195 18.4684 19.1237 24.7052 17.0654L30.5475 13.4199L31.7061 13.3455Z" fill="#333131"/>
<path d="M49.7015 11.7578C49.7015 11.7578 53.6457 13.4194 58.576 12.9234C63.5062 12.4274 63.1858 14.9073 60.129 14.8329C57.0969 14.7337 50.0467 14.5849 49.7015 11.7578Z" fill="#333131"/>
<path d="M56.456 1.01953C56.456 1.01953 61.9532 3.07787 64.5909 4.66503C67.2286 6.22738 71.0002 5.83059 71.0002 5.83059C71.0002 5.83059 73.2189 6.57457 70.3347 6.64897C67.4505 6.72337 63.6049 6.15298 62.4463 5.23541C61.2876 4.31784 53.0048 6.79777 52.6597 5.4834C52.6597 5.4834 52.0927 4.24344 54.8044 3.17707C54.8044 3.17707 56.1109 2.2595 56.456 1.01953Z" fill="#333131"/>
<path d="M37.795 33.4328C37.6224 33.2344 38.1155 23.0171 50.4411 22.8435C62.7667 22.6699 58.2555 24.5795 70.4826 21.182C70.4826 21.182 77.2124 17.2141 79.1845 24.8275C81.1566 32.4408 80.984 35.3176 81.1566 35.9127C81.3291 36.4831 80.5896 38.3183 80.984 39.955C81.4031 41.6166 82.2905 47.7172 82.2166 51.3627C82.1426 55.0082 80.6635 57.1409 80.6635 57.1409C80.6635 57.1409 78.2724 58.1329 76.2263 57.7113C74.1803 57.2897 73.9337 55.0578 68.1653 57.2153C68.1653 57.2153 65.2811 57.7113 63.8021 57.8849C62.323 58.0585 59.2909 58.4553 57.7132 59.4473C56.1602 60.4392 53.5225 60.1912 51.6244 60.1169C49.7262 60.0425 47.0146 60.8608 46.7681 60.7864C46.5215 60.712 47.8281 61.0344 44.1304 59.4721C40.4327 57.9097 40.8518 58.4057 39.6932 56.5706C38.5345 54.7602 37.228 54.0162 38.0415 52.1067C38.855 50.1971 39.4466 47.2212 38.4606 45.4853C37.4745 43.7493 36.168 43.0797 37.4745 40.7734C38.855 38.4671 38.7811 34.5736 37.795 33.4328Z" fill="#EB9A70"/>
<path d="M53.0788 35.491C53.0788 35.491 57.9351 35.1686 58.9951 36.9789C60.0551 38.7893 59.8086 40.7732 57.6886 39.7813C55.5439 38.7893 50.9588 36.0614 47.8281 36.7309C44.6974 37.4005 53.0788 35.491 53.0788 35.491Z" fill="#B9664A"/>
<path d="M60.7946 50.9902C60.7946 50.9902 58.8225 53.1974 60.3016 55.5781C60.3016 55.5781 60.696 57.6116 58.8718 56.4957C57.023 55.3549 60.5727 51.0646 60.7946 50.9902Z" fill="#B9664A"/>
<path d="M57.7625 59.4714C57.7625 59.4714 60.7207 55.7515 64.1718 55.6771C67.623 55.6027 68.4365 55.7515 68.4365 55.7515L73.0463 55.6771L77.1631 58.653L71.7398 62.8689C71.7398 62.8689 62.9393 63.8608 60.4742 63.6128C58.009 63.3401 57.7625 59.4714 57.7625 59.4714Z" fill="#767676"/>
<path d="M58.9458 62.3481C58.9458 62.3481 64.6402 59.2234 74.4761 59.8185C74.4761 59.8185 74.624 66.1671 67.4751 66.6631C60.3016 67.1343 59.1184 62.4225 58.9458 62.3481Z" fill="white"/>
<path d="M45.9299 38.3922C45.9299 38.3922 50.1206 35.2427 57.023 36.4083C57.023 36.4083 58.4281 36.4083 57.9351 35.8379C57.442 35.2675 50.3671 33.5316 46.1025 37.2515C46.1025 37.2267 44.3769 38.293 45.9299 38.3922Z" fill="#333131"/>
<path d="M68.4365 34.8213C68.4365 34.8213 74.5253 31.5974 78.6174 32.9117C78.6174 32.9117 78.6174 31.0022 74.8458 31.5974C71.0742 32.1926 67.697 33.4325 68.4365 34.8213Z" fill="#333131"/>
<path d="M69.1021 34.0029C69.1021 34.0029 64.7388 38.5412 68.8556 43.6003C72.9723 48.6345 75.1909 54.6855 71.8137 55.9255C68.4365 57.1655 66.8835 55.4295 65.3304 55.6775C63.7774 55.9255 60.8193 57.1655 60.8193 57.1655C60.8193 57.1655 60.3262 56.2479 61.7313 55.9999C63.1365 55.7519 65.2565 54.9335 66.5876 55.1815C67.8942 55.4295 70.7784 56.5951 72.2574 54.8591C73.7365 53.1232 73.6626 51.9576 70.7044 47.4937C67.7463 43.0299 63.9993 38.3924 69.1021 34.0029Z" fill="#333131"/>
<path d="M54.3038 42.4033C55.2029 42.2487 55.7924 41.3025 55.6203 40.29C55.4483 39.2775 54.5799 38.582 53.6808 38.7366C52.7816 38.8913 52.1922 39.8374 52.3643 40.85C52.5363 41.8625 53.4047 42.558 54.3038 42.4033Z" fill="#333131"/>
<path d="M74.2696 39.0059C75.1688 38.8512 75.7582 37.9051 75.5861 36.8925C75.4141 35.88 74.5457 35.1845 73.6466 35.3392C72.7474 35.4938 72.158 36.44 72.3301 37.4525C72.5021 38.465 73.3705 39.1605 74.2696 39.0059Z" fill="#333131"/>
<path d="M34.8369 47.5681C34.8369 47.5681 31.9527 40.1779 27.614 40.9467C23.2508 41.7403 23.2508 53.1479 34.5904 58.2318C34.5904 58.2318 35.9462 59.7198 37.6718 58.6038L36.3159 54.3879C36.3159 54.3879 37.5485 53.8919 34.8369 47.5681Z" fill="#EB9A70"/>
<path d="M27.1949 44.0965C27.1949 44.0965 31.2624 44.9645 33.3578 50.9163C33.3578 50.9163 35.0833 42.8565 27.1949 44.0965Z" fill="#B9664A"/>
<path d="M30.7694 49.0566C30.7694 49.0566 28.7973 48.9326 28.7973 50.2966C28.7973 51.6606 31.1392 54.5125 32.988 54.6365C32.988 54.6365 30.8927 53.1485 32.002 52.6525C33.1113 52.1566 33.3578 49.6766 30.7694 49.0566Z" fill="#B9664A"/>
</svg>
