<svg width="89" height="120" viewBox="0 0 89 120" fill="none" xmlns="http://www.w3.org/2000/svg">
<mask id="mask0" mask-type="alpha" maskUnits="userSpaceOnUse" x="0" y="55" width="89" height="66">
<ellipse cx="44.5" cy="87.9933" rx="44.5" ry="32.0069" fill="#C4C4C4"/>
</mask>
<g mask="url(#mask0)">
<path d="M100.738 93.4602C97.9442 81.1079 90.7855 76.8168 86.7697 75.3534C86.7198 75.2542 86.6949 75.2046 86.67 75.2046L86.221 75.1798C84.7992 74.7085 83.9013 74.6341 83.9013 74.6341L84.026 75.0557L24.9861 71.2607C23.6642 75.2294 17.3287 81.0087 7.7007 81.3559C-1.9522 81.6784 -12.2536 96.5607 -12.9271 103.506C-13.6005 110.451 -16.5937 119.207 -15.9202 119.38C-15.2468 119.554 7.20185 119.38 7.20185 119.38H104.155L100.738 93.4602Z" fill="#FFB496"/>
<path d="M7.20184 81.3064C7.20184 81.3064 11.6916 87.5818 11.1927 91.4016C10.6938 95.1966 2.53752 120 2.53752 120L10.3446 119.827L17.6529 90.7319L13.6621 80.1406L7.20184 81.3064Z" fill="#EC786B"/>
<path d="M23.6642 73.3691C23.6642 73.3691 24.3376 82.7946 20.4964 85.275C16.6552 87.7554 15.009 79.8182 15.009 79.8182C15.009 79.8182 22.1676 78.1811 23.6642 73.3691Z" fill="#EC786B"/>
<path d="M72.5523 82.6455C72.0534 83.1416 68.736 89.417 70.5568 96.2132C72.3777 102.985 80.534 119.703 80.534 119.703C80.534 119.703 68.5614 119.529 68.0626 119.206C67.5637 118.884 63.7474 109.111 63.5728 104.498C63.3982 99.8594 62.7497 92.9143 64.8948 89.789C67.0648 86.6389 69.3845 82.0254 69.3845 82.0254L72.5523 82.6455Z" fill="#EC786B"/>
<path d="M83.2777 74.6093C83.2777 74.6093 75.0466 77.3377 73.3006 86.2671C71.5546 95.1965 72.5523 104.126 72.5523 104.126C72.5523 104.126 63.074 100.405 63.3234 97.6769C63.5728 94.9485 65.5683 80.8103 65.5683 80.8103L68.8108 74.1132L72.5523 71.8809L83.2777 74.6093Z" fill="#EC786B"/>
<path d="M12.3401 81.1576L15.1586 91.4017C15.1586 91.4017 15.8321 95.1966 13.9863 99.6613C12.1655 104.126 7.32656 119.678 7.32656 119.678H77.1667C77.1667 119.678 67.0149 102.638 67.5138 98.6692C68.0127 94.7006 66.5161 80.984 73.6747 76.0232L65.8676 75.8496C65.8676 75.8496 62.3756 96.1888 39.4281 93.7084C39.4281 93.7084 19.1495 89.2437 17.3037 79.1485L11.8163 80.3143L12.3401 81.1576Z" fill="#32C850"/>
<path d="M58.9085 92.7158C58.9085 92.7158 49.929 101.968 35.6368 105.44C35.6368 105.44 31.147 114.37 31.9702 114.047C32.7933 113.725 54.2442 105.787 58.9085 92.7158Z" fill="#27A83C"/>
</g>
<path d="M85.9217 75.4516C85.4228 75.1292 58.9833 49.482 58.1602 48.4898C57.3371 47.4977 28.553 14.2604 28.553 14.2604C28.553 14.2604 20.3967 9.62211 19.3989 10.1182C18.4012 10.6143 9.92063 14.2604 9.92063 14.7565C9.92063 15.2526 6.60322 22.6938 6.60322 22.6938C6.60322 22.6938 6.60322 29.6389 6.92748 31.9456C6.95242 32.1688 7.00231 32.4417 7.02725 32.7145C7.4014 35.443 8.07485 40.7014 8.07485 40.7014C8.07485 40.7014 7.90025 44.9925 9.57143 48.9611C11.2426 52.9297 13.5623 58.709 13.5623 58.709C13.5623 58.709 13.8866 64.9844 18.8751 63.4962L22.866 63.3225C22.866 63.3225 26.0338 67.4648 24.6868 71.4334" fill="#FFB496"/>
<path d="M23.1653 63.1249C23.1653 63.1249 38.1311 57.3456 39.6276 54.3691C39.6276 54.3691 40.6253 54.5428 39.8022 56.6759C38.9791 58.8338 24.6619 66.9199 24.6619 66.9199L23.1653 63.1249Z" fill="#EC786B"/>
<path d="M16.8049 31.0784C16.8049 31.0784 20.1722 28.598 24.7866 28.3499C24.7866 28.3499 19.1744 26.2416 16.8049 31.0784Z" fill="#1C2033"/>
<path d="M7.30162 32.4923C7.30162 32.4923 9.82086 31.1033 11.068 31.9714C12.3151 32.8396 13.687 36.8082 10.8186 40.1567C7.95014 43.5052 10.0703 45.1175 13.1881 44.3734C16.306 43.6293 18.052 43.2572 18.052 43.2572C18.052 43.2572 8.94786 44.8694 10.195 42.7611C11.4421 40.6528 12.9387 38.2964 12.9387 38.2964C12.9387 38.2964 14.7596 27.3083 7.30162 32.4923Z" fill="#1C2033"/>
<path d="M21.9681 35.5677C22.767 35.5677 23.4147 34.7015 23.4147 33.6329C23.4147 32.5644 22.767 31.6982 21.9681 31.6982C21.1691 31.6982 20.5214 32.5644 20.5214 33.6329C20.5214 34.7015 21.1691 35.5677 21.9681 35.5677Z" fill="#1C2033"/>
<path d="M8.9229 37.9487C9.63923 37.9487 10.2199 37.2047 10.2199 36.2869C10.2199 35.369 9.63923 34.625 8.9229 34.625C8.20657 34.625 7.62587 35.369 7.62587 36.2869C7.62587 37.2047 8.20657 37.9487 8.9229 37.9487Z" fill="#1C2033"/>
<path d="M13.687 52.1366C13.687 52.1366 11.4421 50.8964 12.814 49.9787C14.1859 49.061 17.0543 48.6145 19.798 49.7555C22.5417 50.8964 24.5372 50.0531 24.5372 50.0531C24.5372 50.0531 20.1722 55.882 16.306 55.7828C12.4399 55.6836 13.687 52.1366 13.687 52.1366Z" fill="#FF8056"/>
<path d="M13.6371 52.8812C13.6371 52.8812 14.6348 53.8733 17.2538 53.5757C19.8728 53.278 23.29 50.6488 23.29 50.6488L23.5145 50.624C23.5145 50.624 20.7209 53.3276 18.7504 53.7245C16.7799 54.1214 13.712 54.0222 13.6371 52.8812Z" fill="#49322A"/>
<path d="M13.687 51.7894C13.687 51.7894 13.2131 52.98 14.2856 53.2777C15.3582 53.5753 18.476 54.4682 23.315 50.6484L15.1087 50.9461C15.1087 50.9709 13.5872 51.1693 13.687 51.7894Z" fill="white"/>
<path d="M17.3037 30.5331C17.3037 30.5331 16.0566 31.8973 16.2561 34.6258C16.2561 34.6258 16.306 35.3203 17.0543 34.2537C17.8026 33.1871 17.5033 30.4835 20.671 29.789C23.8388 29.0945 25.3603 28.1768 25.3603 28.1768C25.3603 28.1768 22.417 28.1768 22.1177 28.3008C21.8184 28.4248 17.3037 30.5331 17.3037 30.5331Z" fill="#EC786B"/>
<path d="M19.3241 19.9658C19.823 20.4619 23.4896 33.3599 30.6232 37.8246C37.7569 42.2893 41.0993 46.0843 42.5958 48.5647C44.0924 51.0451 51.251 57.4941 50.5776 64.4392C49.9041 71.3843 44.4167 77.3372 44.5913 77.1636C44.7659 76.99 43.0947 79.1479 43.5936 79.1479C44.0924 79.1479 58.7339 78.3294 58.7339 78.3294L62.0513 67.242C62.0513 67.242 51.7499 34.6745 50.403 33.6824C49.0561 32.6902 19.3241 19.9658 19.3241 19.9658Z" fill="#EC786B"/>
<path d="M40.1265 40.3047C40.1265 40.3047 35.961 45.2655 39.9519 49.4077C43.9428 53.55 48.4325 50.7223 48.4325 50.7223C48.4325 50.7223 49.1059 51.0448 49.7545 52.533C50.4279 54.0212 42.2716 55.6831 39.1038 50.8711C35.9361 46.0592 36.6345 43.6036 40.1265 40.3047Z" fill="#32C850"/>
<path d="M41.1242 71.3848C41.1242 72.0545 40.9496 77.1641 38.3057 79.1484C35.6368 81.1575 41.1242 71.3848 41.1242 71.3848Z" fill="#EC786B"/>
<path d="M16.0815 14.5837C16.0815 14.5837 9.09751 20.9583 8.77325 25.9191C8.77325 25.9191 8.19957 29.1436 7.02725 28.8956C7.02725 28.8956 5.53068 27.7298 6.85265 24.6789C8.17462 21.628 13.1632 14.0877 15.2584 13.8396C17.3536 13.5916 16.0815 14.5837 16.0815 14.5837Z" fill="#EC786B"/>
<path d="M16.4307 57.2218L19.7481 56.6017C19.7481 56.5769 19.5486 59.5782 16.4307 57.2218Z" fill="#EC786B"/>
<path d="M81.5317 76.023C82.0306 76.1966 84.5249 73.8651 88.1915 77.0152L81.5317 76.023Z" fill="#FFB496"/>
<path d="M15.009 14.3355C15.009 14.3355 21.993 32.6904 41.1242 42.2895C41.1242 42.2895 58.26 55.0139 50.2783 70.566L44.6162 77.1886L60.9039 75.874L64.396 70.2435L65.3937 75.3779L74.5477 75.874C74.5477 75.874 83.3526 74.0633 87.3434 76.5437C87.3434 76.5437 72.3777 57.023 70.5569 46.4566C68.736 35.8653 69.2349 11.0614 46.6117 2.80174C46.6117 2.80174 32.9679 -3.8209 22.9907 3.29781C22.9907 3.29781 0.0432315 4.78605 6.70299 27.7793C6.70299 27.7296 7.35151 19.47 15.009 14.3355Z" fill="#1C2033"/>
<path d="M30.1493 6.89453C30.1493 6.89453 44.3668 10.119 60.0808 44.5965C60.0808 44.5965 63.074 15.8239 30.1493 6.89453Z" fill="#272E44"/>
</svg>
